# xmcd
#
# Track frame offsets: 
#        150
#        9799
#        25673
#        42774
#        55381
#        68591
#        83728
#        99850
#        117850
#        131917
#        146274
#        158202
#        177833
#        193567
#        217131
#        235131
#        242388
#
# Disc length: 3355 seconds
#
# Revision: 2
# Processed by: cddbd v1.5.2PL0 Copyright (c) Steve Scherf et al.
# Submitted via: ExactAudioCopy v0.99pb5
#
DISCID=d30d1911
DTITLE=Dave Van Ronk - The Mayor of MacDougal Street
DYEAR=2005
DGENRE=Folk
TTITLE0=New Orleans Hop Scop Blues
TTITLE1=On Top of Old Smokey
TTITLE2=All My Trials
TTITLE3=Buddy Bolden's Blues
TTITLE4=The Butcher Boy
TTITLE5=Salty Dog
TTITLE6=Two Trains Running
TTITLE7=Way Down in Lubyanka Prison
TTITLE8=Willie the Weeper
TTITLE9=Shaving Cream
TTITLE10=The Cruel Ship's Captain
TTITLE11=As You Make Your Bed
TTITLE12=Bird on the Wire
TTITLE13=Both Sides Now
TTITLE14=In Conditional Support of Beauty
TTITLE15=W.C. Fields Routine
TTITLE16=Romping Through the Swamp
EXTD=
EXTT0=
EXTT1=
EXTT2=
EXTT3=
EXTT4=
EXTT5=
EXTT6=
EXTT7=
EXTT8=
EXTT9=
EXTT10=
EXTT11=
EXTT12=
EXTT13=
EXTT14=
EXTT15=
EXTT16=
PLAYORDER=
